<svg width="22" height="24" viewBox="0 0 22 24" fill="none" xmlns="http://www.w3.org/2000/svg">
<g clip-path="url(#clip0_6519_16810)">
<path d="M13.5868 11.0833L15.2508 8.25982L19.7359 15.2455L19.738 16.5862L19.7234 7.36091C19.7128 7.1354 19.593 6.92912 19.402 6.80746L11.3271 2.16264C11.1383 2.06977 10.8987 2.07084 10.7101 2.16558C10.6846 2.17828 10.6606 2.19218 10.6379 2.20735L10.6097 2.22504L2.77176 6.76704L2.74138 6.78085C2.70227 6.79882 2.66269 6.82169 2.62564 6.84825C2.477 6.95479 2.37834 7.1124 2.34641 7.28918C2.34161 7.31597 2.33806 7.34323 2.33643 7.37081L2.34875 14.8885L6.5264 8.41332C7.05241 7.55473 8.19834 7.27817 9.26218 7.2932L10.5107 7.32614L3.15394 19.1244L4.02116 19.6236L11.466 7.33814L14.7567 7.32619L7.33103 19.9217L10.4255 21.7016L10.7952 21.9142C10.9516 21.9778 11.136 21.981 11.2937 21.924L19.4821 17.1787L17.9166 18.0859L13.5868 11.0833ZM14.2216 20.2272L11.0962 15.3218L13.0041 12.0843L17.1088 18.554L14.2216 20.2272Z" fill="#2D374B"/>
<path d="M11.0962 15.3215L14.2216 20.2269L17.1088 18.5537L13.0041 12.084L11.0962 15.3215Z" fill="#28A0F0"/>
<path d="M19.7381 16.5862L19.736 15.2455L15.2509 8.25977L13.5869 11.0833L17.9167 18.0858L19.4822 17.1786C19.6357 17.0539 19.7286 16.8709 19.7384 16.6734L19.7381 16.5862Z" fill="#28A0F0"/>
<path d="M0.943359 17.8498L3.15406 19.1237L10.5108 7.32552L9.26225 7.29257C8.19842 7.27754 7.05244 7.55411 6.52647 8.41269L2.34882 14.8879L0.943359 17.0474V17.8498Z" fill="white"/>
<path d="M14.757 7.32617L11.4663 7.33812L4.02148 19.6236L6.6237 21.1218L7.33135 19.9217L14.757 7.32617Z" fill="white"/>
<path d="M21.1249 7.30888C21.0973 6.62069 20.7247 5.99069 20.1411 5.62392L11.9603 0.919365C11.383 0.628659 10.6617 0.628285 10.0834 0.919178C10.015 0.953667 2.12779 5.52792 2.12779 5.52792C2.01863 5.58028 1.91348 5.64263 1.81459 5.71343C1.29357 6.08683 0.975982 6.66713 0.943359 7.30464V17.0477L2.34882 14.8882L2.33655 7.37049C2.33818 7.343 2.34163 7.31593 2.34653 7.28923C2.37832 7.11236 2.47707 6.95457 2.62576 6.84793C2.66286 6.82137 10.6848 2.17796 10.7103 2.16522C10.8988 2.07052 11.1385 2.0694 11.3273 2.16228L19.4022 6.807C19.5932 6.92866 19.7129 7.13494 19.7236 7.36045V16.673C19.7138 16.8705 19.6357 17.0535 19.4822 17.1782L17.9167 18.0854L17.1089 18.5536L14.2218 20.2268L11.2938 21.9235C11.1361 21.9805 10.9517 21.9773 10.7954 21.9137L7.33115 19.9213L6.6235 21.1215L9.73665 22.9139C9.83961 22.9724 9.93131 23.0243 10.0066 23.0666C10.1231 23.1319 10.2026 23.1756 10.2306 23.1893C10.4519 23.2967 10.7702 23.3593 11.0571 23.3593C11.3202 23.3593 11.5767 23.311 11.8193 23.2159L20.3237 18.2908C20.8119 17.9126 21.099 17.3422 21.1249 16.7244V7.30888Z" fill="#96BEDC"/>
</g>
<defs>
<clipPath id="clip0_6519_16810">
<rect width="21.9482" height="24" fill="white"/>
</clipPath>
</defs>
</svg>
