<svg width="144" height="46" viewBox="0 0 144 46" fill="none" xmlns="http://www.w3.org/2000/svg">
<path d="M23 46C35.7024 46 46 35.7024 46 23C46 10.2974 35.7024 0 23 0C10.2974 0 0 10.2974 0 23C0 35.7024 10.2974 46 23 46Z" fill="#64AAF1" fill-opacity="0.2"/>
<path d="M23 43.6998C34.4324 43.6998 43.7 34.4322 43.7 22.9998C43.7 11.5675 34.4324 2.2998 23 2.2998C11.5678 2.2998 2.30005 11.5675 2.30005 22.9998C2.30005 34.4322 11.5678 43.6998 23 43.6998Z" fill="#91C5FF"/>
<path d="M5.54525 19.5566C5.46624 20.9278 5.57039 22.3134 5.86663 23.6793L7.69979 25.4961L6.18982 24.9121C6.36936 25.4979 6.58662 26.0785 6.84157 26.6482L8.98356 28.2782L7.38559 27.7462C7.55257 28.0535 7.73032 28.3573 7.92064 28.6572C12.4614 35.7739 21.9037 37.8586 29.0137 33.3136C30.5991 32.3 31.9349 31.0421 33.0014 29.6205C22.9289 31.017 12.5422 27.3904 5.54525 19.5566Z" fill="url(#paint0_linear_6519_16756)"/>
<path d="M40.4078 19.5566C40.4867 20.9278 40.3825 22.3134 40.0863 23.6793L38.2532 25.4961L39.7631 24.9121C39.5835 25.4979 39.3664 26.0785 39.1113 26.6482L36.9693 28.2782L38.5673 27.7462C38.4004 28.0535 38.2226 28.3573 38.0324 28.6572C33.4917 35.7739 24.0493 37.8586 16.9392 33.3136C15.3538 32.3 14.018 31.0421 12.9514 29.6205C23.0276 31.0189 33.4126 27.3922 40.4094 19.5585L40.4078 19.5566Z" fill="url(#paint1_linear_6519_16756)"/>
<path d="M22.9649 33.7553C17.5443 33.7553 12.842 30.686 10.4954 26.1895C11.9137 31.7605 16.959 35.8796 22.9649 35.8796C28.9707 35.8796 34.0178 31.7605 35.4344 26.1895C33.0858 30.686 28.3835 33.7553 22.9649 33.7553Z" fill="url(#paint2_linear_6519_16756)"/>
<path d="M22.9648 33.7558C28.3853 33.7558 33.0876 30.6865 35.4343 26.19C35.6947 25.1692 35.8329 24.1018 35.8329 23.0001C35.8329 15.8871 30.0712 10.1201 22.9648 10.1201C15.8584 10.1201 10.0967 15.8871 10.0967 23.0001C10.0967 24.1018 10.235 25.1692 10.4953 26.19C12.8437 30.6865 17.5461 33.7558 22.9648 33.7558Z" fill="url(#paint3_linear_6519_16756)"/>
<path d="M17.1026 27.3974C19.9832 27.3974 22.3184 25.0599 22.3184 22.1767C22.3184 19.2934 19.9832 16.9561 17.1026 16.9561C14.222 16.9561 11.8867 19.2934 11.8867 22.1767C11.8867 25.0599 14.222 27.3974 17.1026 27.3974Z" fill="white" stroke="#084E80" stroke-width="0.57" stroke-miterlimit="10"/>
<path d="M18.3593 25.4265C19.9211 25.4265 21.1872 24.1592 21.1872 22.5961C21.1872 21.0328 19.9211 19.7656 18.3593 19.7656C16.7975 19.7656 15.5315 21.0328 15.5315 22.5961C15.5315 24.1592 16.7975 25.4265 18.3593 25.4265Z" fill="#1370A7"/>
<path d="M18.3594 24.4197C19.3659 24.4197 20.1819 23.6029 20.1819 22.5956C20.1819 21.5882 19.3659 20.7715 18.3594 20.7715C17.353 20.7715 16.5371 21.5882 16.5371 22.5956C16.5371 23.6029 17.353 24.4197 18.3594 24.4197Z" fill="#0B1A2B"/>
<path d="M17.3289 21.7423C17.6482 21.7423 17.907 21.4832 17.907 21.1636C17.907 20.844 17.6482 20.585 17.3289 20.585C17.0096 20.585 16.7507 20.844 16.7507 21.1636C16.7507 21.4832 17.0096 21.7423 17.3289 21.7423Z" fill="white"/>
<path d="M28.6742 27.3974C31.555 27.3974 33.8899 25.0599 33.8899 22.1767C33.8899 19.2934 31.555 16.9561 28.6742 16.9561C25.7935 16.9561 23.4585 19.2934 23.4585 22.1767C23.4585 25.0599 25.7935 27.3974 28.6742 27.3974Z" fill="white" stroke="#084E80" stroke-width="0.57" stroke-miterlimit="10"/>
<path d="M27.4175 25.4265C28.9794 25.4265 30.2455 24.1592 30.2455 22.5961C30.2455 21.0328 28.9794 19.7656 27.4175 19.7656C25.8558 19.7656 24.5898 21.0328 24.5898 22.5961C24.5898 24.1592 25.8558 25.4265 27.4175 25.4265Z" fill="#1370A7"/>
<path d="M27.4173 24.4197C28.4237 24.4197 29.2398 23.6029 29.2398 22.5956C29.2398 21.5882 28.4237 20.7715 27.4173 20.7715C26.4108 20.7715 25.595 21.5882 25.595 22.5956C25.595 23.6029 26.4108 24.4197 27.4173 24.4197Z" fill="#0B1A2B"/>
<path d="M26.3851 21.7423C26.7043 21.7423 26.9633 21.4832 26.9633 21.1636C26.9633 20.844 26.7043 20.585 26.3851 20.585C26.0659 20.585 25.8069 20.844 25.8069 21.1636C25.8069 21.4832 26.0659 21.7423 26.3851 21.7423Z" fill="white"/>
<path d="M24.218 26.5871L22.9736 24.7324C22.9323 24.6712 22.8443 24.6712 22.803 24.7324L21.5588 26.5871L21.53 26.6304L21.5677 26.6697L22.8138 27.9943C22.8551 28.0375 22.9234 28.0375 22.9628 27.9943L24.2088 26.6697L24.2465 26.6304L24.218 26.5871Z" fill="url(#paint4_linear_6519_16756)"/>
<path d="M53.3601 14.7705H57.7892L62.4672 26.1835H62.6664L67.3443 14.7705H71.7734V31.7571H68.2899V20.7009H68.1489L63.7529 31.6743H61.3807L56.9847 20.6594H56.8437V31.7571H53.3601V14.7705Z" fill="url(#paint5_linear_6519_16756)"/>
<path d="M78.766 31.9979C77.953 31.9979 77.2287 31.857 76.5928 31.575C75.9568 31.2875 75.4538 30.8645 75.0833 30.3058C74.7183 29.7419 74.5359 29.0397 74.5359 28.1993C74.5359 27.4913 74.6658 26.897 74.9257 26.4158C75.1856 25.9349 75.5394 25.5478 75.9874 25.2548C76.4352 24.9616 76.944 24.7405 77.5135 24.5913C78.0885 24.442 78.6913 24.3369 79.3217 24.2759C80.0626 24.1986 80.6599 24.1267 81.1132 24.0604C81.5665 23.9884 81.8957 23.8833 82.1001 23.7451C82.3048 23.6069 82.4072 23.4024 82.4072 23.1314V23.0815C82.4072 22.5563 82.2411 22.1499 81.9095 21.8624C81.5833 21.5748 81.1187 21.4311 80.5161 21.4311C79.8802 21.4311 79.3742 21.5721 78.9981 21.8541C78.6221 22.1306 78.3734 22.4789 78.2518 22.8991L74.9837 22.6338C75.1495 21.8596 75.4759 21.1905 75.9626 20.6265C76.449 20.057 77.0767 19.6202 77.8454 19.316C78.6193 19.0064 79.5152 18.8516 80.5327 18.8516C81.2404 18.8516 81.9177 18.9345 82.5647 19.1004C83.2172 19.2663 83.795 19.5234 84.2982 19.8718C84.807 20.2201 85.2079 20.668 85.5009 21.2154C85.7939 21.7573 85.9404 22.407 85.9404 23.1646V31.7574H82.5896V29.9907H82.49C82.2855 30.3889 82.0118 30.7401 81.6689 31.0441C81.3262 31.3427 80.9143 31.5777 80.4331 31.7491C79.9519 31.9149 79.3962 31.9979 78.766 31.9979ZM79.7778 29.5595C80.2976 29.5595 80.7565 29.4571 81.1546 29.2527C81.5527 29.0424 81.8653 28.7605 82.0918 28.4065C82.3186 28.0528 82.432 27.6519 82.432 27.2038V25.8519C82.3214 25.9239 82.1694 25.9901 81.9759 26.0511C81.7878 26.1063 81.575 26.1587 81.3372 26.2086C81.0994 26.2528 80.8616 26.2942 80.6238 26.333C80.3862 26.3662 80.1704 26.3965 79.977 26.4241C79.5621 26.4851 79.2001 26.5819 78.8902 26.7146C78.5807 26.8473 78.3401 27.027 78.1687 27.2537C77.9974 27.4748 77.9116 27.7512 77.9116 28.0831C77.9116 28.564 78.0857 28.9318 78.4342 29.1862C78.7881 29.4351 79.2359 29.5595 79.7778 29.5595Z" fill="url(#paint6_linear_6519_16756)"/>
<path d="M94.8886 36.8003C93.7438 36.8003 92.7624 36.6428 91.9441 36.3275C91.131 36.0179 90.4843 35.5949 90.0031 35.0586C89.522 34.5222 89.2096 33.9194 89.0659 33.2503L92.3337 32.8108C92.4333 33.0651 92.5909 33.303 92.8066 33.5242C93.0223 33.7453 93.3071 33.9221 93.6608 34.0548C94.0203 34.1933 94.4571 34.2623 94.9714 34.2623C95.74 34.2623 96.3732 34.0744 96.8707 33.6983C97.3739 33.3278 97.6256 32.7057 97.6256 31.8321V29.5013H97.4763C97.3215 29.8553 97.0892 30.1899 96.7796 30.505C96.4698 30.8201 96.0717 31.0773 95.5852 31.2764C95.0985 31.4754 94.518 31.575 93.8434 31.575C92.8869 31.575 92.0159 31.3537 91.2306 30.9114C90.4509 30.4636 89.829 29.7807 89.3644 28.8628C88.9056 27.9394 88.676 26.7726 88.676 25.3624C88.676 23.9194 88.9111 22.7139 89.381 21.7463C89.8511 20.7786 90.476 20.0542 91.2555 19.5732C92.0407 19.0921 92.9007 18.8516 93.8352 18.8516C94.5484 18.8516 95.1457 18.9732 95.6266 19.2165C96.1078 19.4543 96.4949 19.7529 96.7879 20.1123C97.0864 20.4662 97.316 20.8145 97.4763 21.1574H97.609V19.0174H101.117V31.8818C101.117 32.9656 100.852 33.8724 100.321 34.6025C99.7903 35.3323 99.055 35.8797 98.115 36.2447C97.1805 36.6152 96.105 36.8003 94.8886 36.8003ZM94.9631 28.9208C95.5326 28.9208 96.0137 28.7798 96.4063 28.4978C96.8045 28.2103 97.1085 27.8011 97.3187 27.2703C97.5342 26.7339 97.6421 26.0925 97.6421 25.3459C97.6421 24.5995 97.537 23.9525 97.327 23.4051C97.1168 22.8522 96.8127 22.4236 96.4146 22.1195C96.0165 21.8154 95.5326 21.6633 94.9631 21.6633C94.3826 21.6633 93.8931 21.8209 93.495 22.1361C93.0969 22.4457 92.7956 22.877 92.5909 23.43C92.3864 23.9829 92.284 24.6216 92.284 25.3459C92.284 26.0814 92.3864 26.7174 92.5909 27.2537C92.8011 27.7846 93.1024 28.1965 93.495 28.4895C93.8931 28.777 94.3826 28.9208 94.9631 28.9208Z" fill="url(#paint7_linear_6519_16756)"/>
<path d="M104.396 36.5349V19.0174H107.88V21.1574H108.037C108.192 20.8145 108.416 20.4662 108.709 20.1123C109.008 19.7529 109.395 19.4543 109.87 19.2165C110.352 18.9732 110.949 18.8516 111.662 18.8516C112.591 18.8516 113.448 19.0949 114.233 19.5814C115.019 20.0625 115.646 20.7897 116.116 21.7628C116.586 22.7305 116.821 23.9443 116.821 25.4041C116.821 26.825 116.592 28.0249 116.133 29.0038C115.679 29.9769 115.06 30.715 114.275 31.2182C113.495 31.716 112.621 31.9648 111.654 31.9648C110.968 31.9648 110.385 31.8514 109.904 31.6247C109.428 31.3981 109.038 31.1131 108.734 30.7704C108.43 30.422 108.198 30.071 108.037 29.717H107.93V36.5349H104.396ZM107.855 25.3875C107.855 26.1449 107.96 26.8057 108.17 27.3697C108.38 27.9338 108.684 28.3734 109.082 28.6885C109.481 28.9983 109.965 29.1531 110.534 29.1531C111.109 29.1531 111.596 28.9955 111.994 28.6802C112.392 28.3596 112.693 27.9173 112.898 27.3531C113.108 26.7836 113.213 26.1283 113.213 25.3875C113.213 24.652 113.111 24.005 112.906 23.4465C112.702 22.8881 112.4 22.4513 112.002 22.1361C111.604 21.8209 111.115 21.6633 110.534 21.6633C109.959 21.6633 109.472 21.8154 109.074 22.1195C108.682 22.4236 108.38 22.8549 108.17 23.4134C107.96 23.9719 107.855 24.6299 107.855 25.3875Z" fill="url(#paint8_linear_6519_16756)"/>
<path d="M119.644 31.7568V19.0169H123.177V31.7568H119.644ZM121.419 17.3746C120.894 17.3746 120.443 17.2004 120.067 16.8521C119.696 16.4982 119.511 16.0752 119.511 15.5831C119.511 15.0965 119.696 14.679 120.067 14.3306C120.443 13.9767 120.894 13.7998 121.419 13.7998C121.944 13.7998 122.392 13.9767 122.763 14.3306C123.139 14.679 123.326 15.0965 123.326 15.5831C123.326 16.0752 123.139 16.4982 122.763 16.8521C122.392 17.2004 121.944 17.3746 121.419 17.3746Z" fill="url(#paint9_linear_6519_16756)"/>
<path d="M132.281 32.0062C130.97 32.0062 129.842 31.7408 128.897 31.21C127.957 30.6736 127.232 29.9162 126.724 28.9373C126.215 27.9532 125.96 26.7891 125.96 25.4455C125.96 24.1349 126.215 22.9849 126.724 21.9951C127.232 21.0053 127.948 20.2339 128.872 19.681C129.801 19.128 130.89 18.8516 132.14 18.8516C132.98 18.8516 133.763 18.987 134.487 19.258C135.217 19.5234 135.853 19.9243 136.395 20.4606C136.942 20.997 137.368 21.6716 137.672 22.4844C137.976 23.2918 138.128 24.2373 138.128 25.321V26.2914H127.371V24.1018H134.802C134.802 23.5931 134.692 23.1425 134.47 22.7499C134.249 22.3573 133.942 22.0504 133.55 21.8292C133.163 21.6025 132.712 21.4891 132.198 21.4891C131.661 21.4891 131.186 21.6135 130.771 21.8624C130.362 22.1057 130.041 22.4347 129.809 22.8494C129.577 23.2586 129.458 23.7147 129.453 24.218V26.2997C129.453 26.9301 129.568 27.4748 129.801 27.9338C130.039 28.3927 130.373 28.7467 130.804 28.9955C131.236 29.2444 131.747 29.3686 132.339 29.3686C132.731 29.3686 133.091 29.3134 133.417 29.2028C133.743 29.0921 134.023 28.9263 134.255 28.705C134.487 28.484 134.664 28.2131 134.786 27.8922L138.054 28.108C137.888 28.8932 137.548 29.5788 137.033 30.1648C136.525 30.7456 135.867 31.1989 135.059 31.5253C134.258 31.8459 133.331 32.0062 132.281 32.0062Z" fill="url(#paint10_linear_6519_16756)"/>
<defs>
<linearGradient id="paint0_linear_6519_16756" x1="7.97092" y1="20.6349" x2="30.1646" y2="36.8613" gradientUnits="userSpaceOnUse">
<stop stop-color="#69AEE6"/>
<stop offset="0.17" stop-color="#1275C7"/>
<stop offset="0.21" stop-color="#0F60A3"/>
<stop offset="0.26" stop-color="#0C4C81"/>
<stop offset="0.31" stop-color="#0A3D69"/>
<stop offset="0.36" stop-color="#09355A"/>
<stop offset="0.4" stop-color="#093255"/>
<stop offset="0.48" stop-color="#0C3557"/>
<stop offset="0.55" stop-color="#183E5F"/>
<stop offset="0.63" stop-color="#2C4F6D"/>
<stop offset="0.71" stop-color="#476680"/>
<stop offset="0.78" stop-color="#6A8398"/>
<stop offset="0.86" stop-color="#96A7B6"/>
<stop offset="0.93" stop-color="#C8D1D9"/>
<stop offset="1" stop-color="white"/>
</linearGradient>
<linearGradient id="paint1_linear_6519_16756" x1="37.982" y1="20.6349" x2="15.7866" y2="36.8613" gradientUnits="userSpaceOnUse">
<stop stop-color="#69AEE6"/>
<stop offset="0.17" stop-color="#1275C7"/>
<stop offset="0.21" stop-color="#0F60A3"/>
<stop offset="0.26" stop-color="#0C4C81"/>
<stop offset="0.31" stop-color="#0A3D69"/>
<stop offset="0.36" stop-color="#09355A"/>
<stop offset="0.4" stop-color="#093255"/>
<stop offset="0.48" stop-color="#0C3557"/>
<stop offset="0.55" stop-color="#183E5F"/>
<stop offset="0.63" stop-color="#2C4F6D"/>
<stop offset="0.71" stop-color="#476680"/>
<stop offset="0.78" stop-color="#6A8398"/>
<stop offset="0.86" stop-color="#96A7B6"/>
<stop offset="0.93" stop-color="#C8D1D9"/>
<stop offset="1" stop-color="white"/>
</linearGradient>
<linearGradient id="paint2_linear_6519_16756" x1="11.5601" y1="31.0344" x2="34.2977" y2="31.0344" gradientUnits="userSpaceOnUse">
<stop stop-color="#083658"/>
<stop offset="0.13" stop-color="#92C2EA"/>
<stop offset="0.14" stop-color="#A9CEEE"/>
<stop offset="0.17" stop-color="#C3DDF3"/>
<stop offset="0.2" stop-color="#D9EAF7"/>
<stop offset="0.23" stop-color="#EAF3FB"/>
<stop offset="0.27" stop-color="#F6FAFD"/>
<stop offset="0.33" stop-color="#FDFDFE"/>
<stop offset="0.5" stop-color="white"/>
<stop offset="0.66" stop-color="#FDFDFE"/>
<stop offset="0.72" stop-color="#F6FAFD"/>
<stop offset="0.77" stop-color="#EAF3FB"/>
<stop offset="0.8" stop-color="#D9EAF7"/>
<stop offset="0.83" stop-color="#C3DDF3"/>
<stop offset="0.85" stop-color="#A8CEEE"/>
<stop offset="0.88" stop-color="#87BCE7"/>
<stop offset="0.9" stop-color="#62A7E0"/>
<stop offset="0.92" stop-color="#3990D8"/>
<stop offset="0.93" stop-color="#137BD1"/>
<stop offset="1" stop-color="#083658"/>
</linearGradient>
<linearGradient id="paint3_linear_6519_16756" x1="22.9648" y1="11.4572" x2="22.9648" y2="37.2171" gradientUnits="userSpaceOnUse">
<stop offset="0.01" stop-color="#050F1A"/>
<stop offset="0.41" stop-color="#0B1A2B"/>
<stop offset="0.52" stop-color="#0B1B2E"/>
<stop offset="0.62" stop-color="#0B2138"/>
<stop offset="0.7" stop-color="#0C2B48"/>
<stop offset="0.78" stop-color="#0D3960"/>
<stop offset="0.85" stop-color="#0F4B7F"/>
<stop offset="0.93" stop-color="#1060A3"/>
<stop offset="1" stop-color="#137BD1"/>
</linearGradient>
<linearGradient id="paint4_linear_6519_16756" x1="22.8875" y1="24.6857" x2="22.8875" y2="28.0265" gradientUnits="userSpaceOnUse">
<stop stop-color="#E1E1E1"/>
<stop offset="1" stop-color="#908A89"/>
</linearGradient>
<linearGradient id="paint5_linear_6519_16756" x1="95.7443" y1="13.8001" x2="95.7818" y2="36.8008" gradientUnits="userSpaceOnUse">
<stop stop-color="#062049"/>
<stop offset="1" stop-color="#1776D0"/>
</linearGradient>
<linearGradient id="paint6_linear_6519_16756" x1="95.7442" y1="13.8003" x2="95.7817" y2="36.801" gradientUnits="userSpaceOnUse">
<stop stop-color="#062049"/>
<stop offset="1" stop-color="#1776D0"/>
</linearGradient>
<linearGradient id="paint7_linear_6519_16756" x1="95.7442" y1="13.8003" x2="95.7816" y2="36.801" gradientUnits="userSpaceOnUse">
<stop stop-color="#062049"/>
<stop offset="1" stop-color="#1776D0"/>
</linearGradient>
<linearGradient id="paint8_linear_6519_16756" x1="95.7441" y1="13.8003" x2="95.7816" y2="36.801" gradientUnits="userSpaceOnUse">
<stop stop-color="#062049"/>
<stop offset="1" stop-color="#1776D0"/>
</linearGradient>
<linearGradient id="paint9_linear_6519_16756" x1="95.7442" y1="13.7998" x2="95.7817" y2="36.8005" gradientUnits="userSpaceOnUse">
<stop stop-color="#062049"/>
<stop offset="1" stop-color="#1776D0"/>
</linearGradient>
<linearGradient id="paint10_linear_6519_16756" x1="95.7442" y1="13.8003" x2="95.7817" y2="36.801" gradientUnits="userSpaceOnUse">
<stop stop-color="#062049"/>
<stop offset="1" stop-color="#1776D0"/>
</linearGradient>
</defs>
</svg>
