<svg width="67" height="18" viewBox="0 0 67 18" fill="none" xmlns="http://www.w3.org/2000/svg">
<path d="M0 0.759277H3.46626L7.12728 9.69118H7.28316L10.9442 0.759277H14.4104V14.0531H11.6842V5.40045H11.5738L8.13348 13.9883H6.27696L2.83662 5.368H2.72628V14.0531H0V0.759277Z" fill="url(#paint0_linear_3245_26599)"/>
<path d="M19.8828 14.2416C19.2465 14.2416 18.6797 14.1313 18.182 13.9106C17.6843 13.6856 17.2906 13.3546 17.0007 12.9173C16.715 12.476 16.5723 11.9264 16.5723 11.2687C16.5723 10.7147 16.674 10.2496 16.8774 9.873C17.0808 9.49662 17.3576 9.19368 17.7082 8.96436C18.0587 8.73486 18.4569 8.56188 18.9025 8.44506C19.3525 8.32824 19.8243 8.24598 20.3177 8.19828C20.8975 8.1378 21.3649 8.08146 21.7197 8.02962C22.0745 7.97328 22.3321 7.89102 22.4921 7.78284C22.6523 7.67466 22.7324 7.51464 22.7324 7.3026V7.26354C22.7324 6.85251 22.6024 6.53443 22.3429 6.30941C22.0876 6.08438 21.724 5.97188 21.2524 5.97188C20.7547 5.97188 20.3587 6.08222 20.0644 6.30292C19.7701 6.51929 19.5756 6.79192 19.4803 7.1208L16.9227 6.9131C17.0525 6.30725 17.3079 5.78364 17.6888 5.34222C18.0695 4.89651 18.5607 4.55463 19.1623 4.31662C19.768 4.07428 20.4691 3.95312 21.2654 3.95312C21.8193 3.95312 22.3494 4.01803 22.8557 4.14785C23.3664 4.27768 23.8185 4.47891 24.2124 4.75153C24.6105 5.02416 24.9243 5.37469 25.1536 5.80311C25.3829 6.22719 25.4976 6.73567 25.4976 7.32852V14.0533H22.8751V12.6707H22.7972C22.6372 12.9823 22.423 13.2572 22.1546 13.4951C21.8864 13.7288 21.564 13.9127 21.1875 14.0468C20.8109 14.1766 20.376 14.2416 19.8828 14.2416ZM20.6746 12.3332C21.0814 12.3332 21.4405 12.2531 21.7521 12.0931C22.0637 11.9286 22.3083 11.7079 22.4856 11.4309C22.6631 11.1541 22.7518 10.8403 22.7518 10.4897V9.43164C22.6653 9.48798 22.5463 9.53982 22.3949 9.58752C22.2477 9.63072 22.0812 9.67176 21.895 9.71082C21.7089 9.74538 21.5228 9.77778 21.3367 9.8082C21.1507 9.83412 20.9819 9.85788 20.8305 9.87948C20.5058 9.92718 20.2225 10.003 19.98 10.1068C19.7377 10.2107 19.5495 10.3513 19.4154 10.5287C19.2813 10.7017 19.2141 10.9181 19.2141 11.1778C19.2141 11.5542 19.3504 11.842 19.6231 12.0411C19.9001 12.2359 20.2506 12.3332 20.6746 12.3332Z" fill="url(#paint1_linear_3245_26599)"/>
<path d="M32.5006 18C31.6048 18 30.8367 17.8767 30.1963 17.6299C29.56 17.3876 29.0538 17.0566 28.6773 16.6369C28.3007 16.2171 28.0563 15.7453 27.9438 15.2217L30.5012 14.8777C30.5791 15.0768 30.7024 15.2629 30.8713 15.4361C31.0401 15.6091 31.263 15.7475 31.5398 15.8513C31.8212 15.9597 32.163 16.0137 32.5655 16.0137C33.167 16.0137 33.6626 15.8666 34.0519 15.5723C34.4457 15.2824 34.6427 14.7955 34.6427 14.1118V12.2877H34.5258C34.4047 12.5647 34.2229 12.8266 33.9806 13.0732C33.7382 13.3198 33.4266 13.5211 33.0459 13.6769C32.665 13.8326 32.2107 13.9106 31.6827 13.9106C30.9341 13.9106 30.2525 13.7374 29.6379 13.3913C29.0277 13.0408 28.541 12.5064 28.1774 11.788C27.8183 11.0653 27.6387 10.1522 27.6387 9.0486C27.6387 7.91928 27.8226 6.97585 28.1904 6.21853C28.5583 5.46124 29.0474 4.89434 29.6574 4.51786C30.2719 4.14137 30.9449 3.95312 31.6763 3.95312C32.2344 3.95312 32.7019 4.04833 33.0783 4.23873C33.4548 4.42482 33.7578 4.65849 33.9871 4.93978C34.2207 5.21674 34.4004 5.48937 34.5258 5.75766H34.6297V4.08294H37.3754V14.1507C37.3754 14.9989 37.1677 15.7086 36.7522 16.2799C36.3368 16.8511 35.7614 17.2795 35.0257 17.5651C34.2944 17.8551 33.4527 18 32.5006 18ZM32.559 11.8334C33.0046 11.8334 33.3812 11.723 33.6885 11.5024C34 11.2774 34.238 10.9571 34.4025 10.5417C34.5712 10.1219 34.6556 9.61992 34.6556 9.03564C34.6556 8.45154 34.5734 7.9452 34.409 7.5168C34.2445 7.08403 34.0065 6.74865 33.695 6.51064C33.3834 6.27262 33.0046 6.15362 32.559 6.15362C32.1047 6.15362 31.7216 6.27696 31.41 6.52362C31.0985 6.76597 30.8627 7.1035 30.7025 7.53624C30.5424 7.96896 30.4623 8.46882 30.4623 9.03564C30.4623 9.61128 30.5424 10.109 30.7025 10.5287C30.867 10.9442 31.1028 11.2666 31.41 11.4959C31.7216 11.7209 32.1047 11.8334 32.559 11.8334Z" fill="url(#paint2_linear_3245_26599)"/>
<path d="M39.9414 17.7923V4.08294H42.6677V5.75766H42.791C42.9123 5.48937 43.0874 5.21674 43.3168 4.93978C43.5506 4.65849 43.8535 4.42482 44.2256 4.23873C44.6021 4.04833 45.0694 3.95312 45.6278 3.95312C46.3546 3.95312 47.0255 4.14353 47.64 4.52434C48.2545 4.90083 48.7456 5.46989 49.1135 6.23151C49.4812 6.98882 49.6652 7.93872 49.6652 9.08118C49.6652 10.1932 49.4855 11.1323 49.1264 11.8984C48.7717 12.6599 48.2869 13.2376 47.6724 13.6314C47.0622 14.0209 46.3786 14.2157 45.6211 14.2157C45.0845 14.2157 44.6281 14.1269 44.2515 13.9495C43.8794 13.7722 43.5743 13.5491 43.3364 13.2809C43.0982 13.0082 42.9166 12.7336 42.791 12.4565H42.7067V17.7923H39.9414ZM42.6482 9.06822C42.6482 9.66096 42.7305 10.1781 42.8948 10.6195C43.0594 11.061 43.2973 11.405 43.6089 11.6516C43.9205 11.894 44.2992 12.0152 44.7449 12.0152C45.1949 12.0152 45.5758 11.8919 45.8873 11.6451C46.1989 11.3942 46.4347 11.048 46.5949 10.6065C46.7593 10.1608 46.8415 9.648 46.8415 9.06822C46.8415 8.49258 46.7614 7.98624 46.6014 7.5492C46.4412 7.11216 46.2054 6.77029 45.8938 6.52362C45.5822 6.27696 45.1992 6.15362 44.7449 6.15362C44.2949 6.15362 43.914 6.27262 43.6024 6.51064C43.2952 6.74865 43.0594 7.08619 42.8948 7.52328C42.7305 7.96032 42.6482 8.4753 42.6482 9.06822Z" fill="url(#paint3_linear_3245_26599)"/>
<path d="M51.8744 14.0533V4.08294H54.6395V14.0533H51.8744ZM53.2634 2.79769C52.8523 2.79769 52.4997 2.66137 52.2054 2.38874C51.9154 2.1118 51.7705 1.78074 51.7705 1.39559C51.7705 1.01479 51.9154 0.688068 52.2054 0.41544C52.4997 0.138474 52.8523 0 53.2634 0C53.6745 0 54.025 0.138474 54.315 0.41544C54.6093 0.688068 54.7563 1.01479 54.7563 1.39559C54.7563 1.78074 54.6093 2.1118 54.315 2.38874C54.025 2.66137 53.6745 2.79769 53.2634 2.79769Z" fill="url(#paint4_linear_3245_26599)"/>
<path d="M61.7643 14.2481C60.7386 14.2481 59.8559 14.0404 59.1157 13.6249C58.3801 13.2052 57.8133 12.6124 57.4151 11.8463C57.0169 11.0761 56.8179 10.1651 56.8179 9.11358C56.8179 8.08794 57.0169 7.18789 57.4151 6.41328C57.8133 5.63866 58.3736 5.03498 59.0963 4.60224C59.8233 4.16949 60.6758 3.95312 61.6539 3.95312C62.3117 3.95312 62.924 4.05914 63.4908 4.27118C64.0622 4.4789 64.5597 4.79265 64.9839 5.21241C65.4123 5.63217 65.7455 6.16012 65.9835 6.79624C66.2214 7.42806 66.3404 8.16804 66.3404 9.0162V9.77562H57.9214V8.06202H63.7376C63.7376 7.66386 63.651 7.31124 63.4779 7.00396C63.3047 6.69672 63.0646 6.45655 62.7573 6.28344C62.4544 6.10601 62.1018 6.01731 61.6993 6.01731C61.2795 6.01731 60.9075 6.11467 60.5828 6.30941C60.2625 6.49982 60.0116 6.75731 59.8298 7.08187C59.6482 7.40214 59.5551 7.75908 59.5508 8.15292V9.7821C59.5508 10.2755 59.6415 10.7017 59.8233 11.061C60.0095 11.4201 60.2712 11.6971 60.6089 11.8919C60.9464 12.0866 61.3467 12.1838 61.8096 12.1838C62.1169 12.1838 62.3982 12.1406 62.6535 12.0541C62.9089 11.9675 63.1274 11.8377 63.3092 11.6645C63.4908 11.4916 63.6294 11.2795 63.7245 11.0284L66.2821 11.1973C66.1523 11.8118 65.8861 12.3484 65.4836 12.807C65.0855 13.2615 64.5707 13.6163 63.9389 13.8717C63.3114 14.1226 62.5865 14.2481 61.7643 14.2481Z" fill="url(#paint5_linear_3245_26599)"/>
<defs>
<linearGradient id="paint0_linear_3245_26599" x1="33.1702" y1="-0.000196629" x2="33.1996" y2="18.0003" gradientUnits="userSpaceOnUse">
<stop stop-color="#062049"/>
<stop offset="1" stop-color="#1776D0"/>
</linearGradient>
<linearGradient id="paint1_linear_3245_26599" x1="33.1701" y1="1.66234e-06" x2="33.1994" y2="18.0005" gradientUnits="userSpaceOnUse">
<stop stop-color="#062049"/>
<stop offset="1" stop-color="#1776D0"/>
</linearGradient>
<linearGradient id="paint2_linear_3245_26599" x1="33.1702" y1="1.18721e-06" x2="33.1996" y2="18.0005" gradientUnits="userSpaceOnUse">
<stop stop-color="#062049"/>
<stop offset="1" stop-color="#1776D0"/>
</linearGradient>
<linearGradient id="paint3_linear_3245_26599" x1="33.1702" y1="1.4771e-06" x2="33.1995" y2="18.0005" gradientUnits="userSpaceOnUse">
<stop stop-color="#062049"/>
<stop offset="1" stop-color="#1776D0"/>
</linearGradient>
<linearGradient id="paint4_linear_3245_26599" x1="33.1702" y1="-9.80003e-10" x2="33.1995" y2="18.0005" gradientUnits="userSpaceOnUse">
<stop stop-color="#062049"/>
<stop offset="1" stop-color="#1776D0"/>
</linearGradient>
<linearGradient id="paint5_linear_3245_26599" x1="33.1704" y1="8.58419e-07" x2="33.1997" y2="18.0005" gradientUnits="userSpaceOnUse">
<stop stop-color="#062049"/>
<stop offset="1" stop-color="#1776D0"/>
</linearGradient>
</defs>
</svg>
