<svg width="40" height="41" viewBox="0 0 40 41" fill="none" xmlns="http://www.w3.org/2000/svg">
<g clip-path="url(#clip0_5749_33224)">
<path d="M20 40.5C31.0457 40.5 40 31.5457 40 20.5C40 9.45431 31.0457 0.5 20 0.5C8.95431 0.5 0 9.45431 0 20.5C0 31.5457 8.95431 40.5 20 40.5Z" fill="#64AAF1" fill-opacity="0.2"/>
<path d="M20 38.5C29.9411 38.5 38 30.4411 38 20.5C38 10.5589 29.9411 2.5 20 2.5C10.0589 2.5 2 10.5589 2 20.5C2 30.4411 10.0589 38.5 20 38.5Z" fill="#91C5FF"/>
<path d="M4.82195 17.5059C4.75326 18.6982 4.84382 19.9031 5.10142 21.0907L6.69549 22.6707L5.38246 22.1627C5.53858 22.6722 5.7275 23.177 5.94919 23.6723L7.81179 25.0897L6.42226 24.6271C6.56746 24.8944 6.72202 25.1585 6.88752 25.4195C10.836 31.6079 19.0467 33.4206 25.2294 29.4685C26.6079 28.5871 27.7695 27.4932 28.697 26.2571C19.9382 27.4713 10.9063 24.3178 4.82195 17.5059Z" fill="url(#paint0_linear_5749_33224)"/>
<path d="M35.1372 17.5059C35.206 18.6982 35.1154 19.9031 34.8578 21.0907L33.2637 22.6707L34.5768 22.1627C34.4206 22.6722 34.2317 23.177 34.01 23.6723L32.1474 25.0897L33.5369 24.6271C33.3917 24.8944 33.2372 25.1585 33.0716 25.4195C29.1232 31.6079 20.9124 33.4206 14.7298 29.4685C13.3512 28.5871 12.1896 27.4932 11.2622 26.2571C20.0241 27.4729 29.0545 24.3193 35.1388 17.5075L35.1372 17.5059Z" fill="url(#paint1_linear_5749_33224)"/>
<path d="M19.9695 29.8525C15.256 29.8525 11.167 27.1834 9.12646 23.2734C10.3598 28.1178 14.747 31.6996 19.9695 31.6996C25.1919 31.6996 29.5807 28.1178 30.8125 23.2734C28.7704 27.1834 24.6814 29.8525 19.9695 29.8525Z" fill="url(#paint2_linear_5749_33224)"/>
<path d="M19.9695 29.8527C24.6829 29.8527 28.7719 27.1836 30.8125 23.2736C31.0389 22.386 31.1591 21.4577 31.1591 20.4998C31.1591 14.3146 26.149 9.2998 19.9695 9.2998C13.7899 9.2998 8.77979 14.3146 8.77979 20.4998C8.77979 21.4577 8.90003 22.386 9.12643 23.2736C11.1685 27.1836 15.2575 29.8527 19.9695 29.8527Z" fill="url(#paint3_linear_5749_33224)"/>
<path d="M14.8719 24.3236C17.3768 24.3236 19.4075 22.291 19.4075 19.7838C19.4075 17.2766 17.3768 15.2441 14.8719 15.2441C12.3671 15.2441 10.3364 17.2766 10.3364 19.7838C10.3364 22.291 12.3671 24.3236 14.8719 24.3236Z" fill="white" stroke="#084E80" stroke-width="0.57" stroke-miterlimit="10"/>
<path d="M15.9648 22.6091C17.3229 22.6091 18.4239 21.5071 18.4239 20.1478C18.4239 18.7884 17.3229 17.6865 15.9648 17.6865C14.6067 17.6865 13.5059 18.7884 13.5059 20.1478C13.5059 21.5071 14.6067 22.6091 15.9648 22.6091Z" fill="#1370A7"/>
<path d="M15.9645 21.7348C16.8397 21.7348 17.5492 21.0247 17.5492 20.1487C17.5492 19.2727 16.8397 18.5625 15.9645 18.5625C15.0893 18.5625 14.3799 19.2727 14.3799 20.1487C14.3799 21.0247 15.0893 21.7348 15.9645 21.7348Z" fill="#0B1A2B"/>
<path d="M15.0686 19.4058C15.3463 19.4058 15.5714 19.1805 15.5714 18.9026C15.5714 18.6247 15.3463 18.3994 15.0686 18.3994C14.791 18.3994 14.5659 18.6247 14.5659 18.9026C14.5659 19.1805 14.791 19.4058 15.0686 19.4058Z" fill="white"/>
<path d="M24.9344 24.3236C27.4393 24.3236 29.4699 22.291 29.4699 19.7838C29.4699 17.2766 27.4393 15.2441 24.9344 15.2441C22.4295 15.2441 20.3989 17.2766 20.3989 19.7838C20.3989 22.291 22.4295 24.3236 24.9344 24.3236Z" fill="white" stroke="#084E80" stroke-width="0.57" stroke-miterlimit="10"/>
<path d="M23.8413 22.6091C25.1994 22.6091 26.3003 21.5071 26.3003 20.1478C26.3003 18.7884 25.1994 17.6865 23.8413 17.6865C22.4832 17.6865 21.3823 18.7884 21.3823 20.1478C21.3823 21.5071 22.4832 22.6091 23.8413 22.6091Z" fill="#1370A7"/>
<path d="M23.8415 21.7348C24.7167 21.7348 25.4262 21.0247 25.4262 20.1487C25.4262 19.2727 24.7167 18.5625 23.8415 18.5625C22.9663 18.5625 22.2568 19.2727 22.2568 20.1487C22.2568 21.0247 22.9663 21.7348 23.8415 21.7348Z" fill="#0B1A2B"/>
<path d="M22.9437 19.4058C23.2213 19.4058 23.4464 19.1805 23.4464 18.9026C23.4464 18.6247 23.2213 18.3994 22.9437 18.3994C22.666 18.3994 22.4409 18.6247 22.4409 18.9026C22.4409 19.1805 22.666 19.4058 22.9437 19.4058Z" fill="white"/>
<path d="M21.0594 23.6194L19.9774 22.0067C19.9415 21.9535 19.865 21.9535 19.8291 22.0067L18.7472 23.6194L18.7222 23.6569L18.755 23.6913L19.8385 24.843C19.8744 24.8805 19.9338 24.8805 19.9681 24.843L21.0516 23.6913L21.0844 23.6569L21.0594 23.6194Z" fill="url(#paint4_linear_5749_33224)"/>
</g>
<defs>
<linearGradient id="paint0_linear_5749_33224" x1="6.93124" y1="18.4435" x2="26.2301" y2="32.5535" gradientUnits="userSpaceOnUse">
<stop stop-color="#69AEE6"/>
<stop offset="0.17" stop-color="#1275C7"/>
<stop offset="0.21" stop-color="#0F60A3"/>
<stop offset="0.26" stop-color="#0C4C81"/>
<stop offset="0.31" stop-color="#0A3D69"/>
<stop offset="0.36" stop-color="#09355A"/>
<stop offset="0.4" stop-color="#093255"/>
<stop offset="0.48" stop-color="#0C3557"/>
<stop offset="0.55" stop-color="#183E5F"/>
<stop offset="0.63" stop-color="#2C4F6D"/>
<stop offset="0.71" stop-color="#476680"/>
<stop offset="0.78" stop-color="#6A8398"/>
<stop offset="0.86" stop-color="#96A7B6"/>
<stop offset="0.93" stop-color="#C8D1D9"/>
<stop offset="1" stop-color="white"/>
</linearGradient>
<linearGradient id="paint1_linear_5749_33224" x1="33.028" y1="18.4435" x2="13.7276" y2="32.5535" gradientUnits="userSpaceOnUse">
<stop stop-color="#69AEE6"/>
<stop offset="0.17" stop-color="#1275C7"/>
<stop offset="0.21" stop-color="#0F60A3"/>
<stop offset="0.26" stop-color="#0C4C81"/>
<stop offset="0.31" stop-color="#0A3D69"/>
<stop offset="0.36" stop-color="#09355A"/>
<stop offset="0.4" stop-color="#093255"/>
<stop offset="0.48" stop-color="#0C3557"/>
<stop offset="0.55" stop-color="#183E5F"/>
<stop offset="0.63" stop-color="#2C4F6D"/>
<stop offset="0.71" stop-color="#476680"/>
<stop offset="0.78" stop-color="#6A8398"/>
<stop offset="0.86" stop-color="#96A7B6"/>
<stop offset="0.93" stop-color="#C8D1D9"/>
<stop offset="1" stop-color="white"/>
</linearGradient>
<linearGradient id="paint2_linear_5749_33224" x1="10.0523" y1="27.4865" x2="29.8242" y2="27.4865" gradientUnits="userSpaceOnUse">
<stop stop-color="#083658"/>
<stop offset="0.13" stop-color="#92C2EA"/>
<stop offset="0.14" stop-color="#A9CEEE"/>
<stop offset="0.17" stop-color="#C3DDF3"/>
<stop offset="0.2" stop-color="#D9EAF7"/>
<stop offset="0.23" stop-color="#EAF3FB"/>
<stop offset="0.27" stop-color="#F6FAFD"/>
<stop offset="0.33" stop-color="#FDFDFE"/>
<stop offset="0.5" stop-color="white"/>
<stop offset="0.66" stop-color="#FDFDFE"/>
<stop offset="0.72" stop-color="#F6FAFD"/>
<stop offset="0.77" stop-color="#EAF3FB"/>
<stop offset="0.8" stop-color="#D9EAF7"/>
<stop offset="0.83" stop-color="#C3DDF3"/>
<stop offset="0.85" stop-color="#A8CEEE"/>
<stop offset="0.88" stop-color="#87BCE7"/>
<stop offset="0.9" stop-color="#62A7E0"/>
<stop offset="0.92" stop-color="#3990D8"/>
<stop offset="0.93" stop-color="#137BD1"/>
<stop offset="1" stop-color="#083658"/>
</linearGradient>
<linearGradient id="paint3_linear_5749_33224" x1="19.9695" y1="10.4624" x2="19.9695" y2="32.8624" gradientUnits="userSpaceOnUse">
<stop offset="0.01" stop-color="#050F1A"/>
<stop offset="0.41" stop-color="#0B1A2B"/>
<stop offset="0.52" stop-color="#0B1B2E"/>
<stop offset="0.62" stop-color="#0B2138"/>
<stop offset="0.7" stop-color="#0C2B48"/>
<stop offset="0.78" stop-color="#0D3960"/>
<stop offset="0.85" stop-color="#0F4B7F"/>
<stop offset="0.93" stop-color="#1060A3"/>
<stop offset="1" stop-color="#137BD1"/>
</linearGradient>
<linearGradient id="paint4_linear_5749_33224" x1="19.9026" y1="21.9661" x2="19.9026" y2="24.8711" gradientUnits="userSpaceOnUse">
<stop stop-color="#E1E1E1"/>
<stop offset="1" stop-color="#908A89"/>
</linearGradient>
<clipPath id="clip0_5749_33224">
<rect width="40" height="40" fill="white" transform="translate(0 0.5)"/>
</clipPath>
</defs>
</svg>
