<svg width="20" height="21" viewBox="0 0 20 21" fill="none" xmlns="http://www.w3.org/2000/svg">
<g clip-path="url(#clip0_5749_33243)">
<mask id="mask0_5749_33243" style="mask-type:luminance" maskUnits="userSpaceOnUse" x="0" y="0" width="20" height="21">
<path d="M0 0.5H20V20.5H0V0.5Z" fill="white"/>
</mask>
<g mask="url(#mask0_5749_33243)">
<path d="M5.7895 19.9736C5.69932 19.9736 5.61066 19.9504 5.53203 19.9062C5.4534 19.8621 5.38743 19.7984 5.34046 19.7215C5.29349 19.6445 5.26708 19.5567 5.26378 19.4666C5.26048 19.3765 5.28039 19.287 5.3216 19.2068L8.98739 12.0789H2.6316C2.52419 12.079 2.41934 12.0462 2.33111 11.9849C2.24288 11.9236 2.17551 11.8368 2.13804 11.7362C2.10057 11.6355 2.0948 11.5258 2.1215 11.4218C2.14819 11.3177 2.20608 11.2243 2.28739 11.1542L13.8669 1.15416C13.9593 1.07409 14.0768 1.02873 14.1991 1.02589C14.3214 1.02304 14.4409 1.06288 14.537 1.13855C14.6331 1.21423 14.6998 1.32102 14.7257 1.44057C14.7517 1.56011 14.7351 1.68495 14.679 1.79363L11.0132 8.921H17.3684C17.4758 8.92105 17.5806 8.95392 17.6687 9.01523C17.7569 9.07653 17.8242 9.16332 17.8616 9.26396C17.899 9.3646 17.9047 9.47427 17.878 9.57826C17.8513 9.68225 17.7934 9.77558 17.7121 9.84574L6.13371 19.8457C6.03805 19.9283 5.91587 19.9737 5.7895 19.9736Z" fill="white"/>
</g>
</g>
<defs>
<clipPath id="clip0_5749_33243">
<rect width="20" height="20" fill="white" transform="translate(0 0.5)"/>
</clipPath>
</defs>
</svg>
